<?xml version="1.0" encoding="utf-8"?>
<!-- Generator: Adobe Illustrator 12.0.0, SVG Export Plug-In . SVG Version: 6.00 Build 51448)  -->
<!DOCTYPE svg PUBLIC "-//W3C//DTD SVG 1.1//EN" "http://www.w3.org/Graphics/SVG/1.1/DTD/svg11.dtd" [
	<!ENTITY ns_svg "http://www.w3.org/2000/svg">
	<!ENTITY ns_xlink "http://www.w3.org/1999/xlink">
]>
<svg  version="1.1" id="Icon" xmlns="&ns_svg;" xmlns:xlink="&ns_xlink;" width="1024" height="1024" viewBox="0 0 1024 1024"
	 overflow="visible" enable-background="new 0 0 1024 1024" xml:space="preserve">
<rect id="Background" fill="#3C8DBC" width="1024" height="1024"/>
<path id="Shield" fill="#FFFFFF" d="M740.51,549.703V222.609H511.542v581.125c40.531-21.469,76.844-44.813,108.875-70.031
	C700.479,671.016,740.51,609.703,740.51,549.703z M838.667,157.203v392.5c0,29.313-5.719,58.375-17.125,87.156
	c-11.438,28.781-25.563,54.344-42.438,76.656s-36.969,44.063-60.313,65.188s-44.906,38.656-64.656,52.656
	c-19.75,13.938-40.375,27.156-61.844,39.594s-36.719,20.875-45.719,25.281c-9.063,4.438-16.313,7.844-21.75,10.25
	c-4.063,2.031-8.5,3.063-13.281,3.063s-9.219-1.031-13.281-3.063c-5.469-2.406-12.688-5.813-21.75-10.25
	c-9-4.406-24.25-12.844-45.75-25.281c-21.438-12.438-42.063-25.656-61.813-39.594c-19.75-14-41.313-31.531-64.656-52.656
	s-43.469-42.875-60.313-65.188c-16.875-22.313-31.031-47.875-42.438-76.656s-17.125-57.844-17.125-87.156v-392.5
	c0-8.875,3.25-16.563,9.719-23c6.469-6.5,14.125-9.75,23-9.75h588.813c8.844,0,16.531,3.25,23,9.75
	C835.417,140.641,838.667,148.328,838.667,157.203z"/>
</svg>
