<svg width="300" height="300" viewBox="0 0 300 300" fill="none" xmlns="http://www.w3.org/2000/svg">
<g clip-path="url(#clip0_68_64)">
<path d="M300 253.125C300 279.023 279.023 300 253.125 300H46.875C20.9766 300 0 279.023 0 253.125V46.875C0 20.9766 20.9766 0 46.875 0H253.125C279.023 0 300 20.9766 300 46.875V253.125Z" fill="white"/>
<path d="M217.061 159.595V63.6475H150V234.104C161.875 227.807 172.503 220.961 181.884 213.565C205.335 195.175 217.061 177.185 217.061 159.595ZM245.801 44.458V159.595C245.801 168.19 244.129 176.71 240.786 185.156C237.443 193.601 233.302 201.097 228.362 207.643C223.422 214.19 217.535 220.561 210.699 226.758C203.863 232.954 197.551 238.102 191.763 242.199C185.975 246.297 179.938 250.17 173.651 253.818C167.364 257.466 162.898 259.94 160.254 261.239C157.609 262.538 155.489 263.538 153.892 264.237C152.694 264.837 151.397 265.137 150 265.137C148.603 265.137 147.306 264.837 146.108 264.237C144.511 263.538 142.391 262.538 139.746 261.239C137.102 259.94 132.636 257.466 126.349 253.818C120.062 250.17 114.025 246.297 108.237 242.199C102.449 238.102 96.137 232.954 89.3012 226.758C82.4654 220.561 76.5777 214.19 71.638 207.643C66.6982 201.097 62.5568 193.601 59.2138 185.156C55.8707 176.71 54.1992 168.19 54.1992 159.595V44.458C54.1992 41.8594 55.1472 39.6107 57.0433 37.7117C58.9394 35.8128 61.1847 34.8633 63.7793 34.8633H236.221C238.815 34.8633 241.061 35.8128 242.957 37.7117C244.853 39.6107 245.801 41.8594 245.801 44.458Z" fill="#175DDC"/>
</g>
<defs>
<clipPath id="clip0_68_64">
<rect width="300" height="300" fill="white"/>
</clipPath>
</defs>
</svg>
