<svg width="244" height="150" viewBox="0 0 244 150" fill="none" xmlns="http://www.w3.org/2000/svg">
<path fill-rule="evenodd" clip-rule="evenodd" d="M16.0627 119.762C19.5047 119.762 22.1818 121.079 24.1487 123.823C26.1155 126.512 27.099 130.189 27.099 134.853C27.099 139.683 26.1155 143.415 24.094 146.049C22.0725 148.738 19.3408 150 15.8988 150C12.4568 150 9.8343 148.793 7.86744 146.268H7.32109L6.28303 148.848C6.11912 149.232 5.73668 149.451 5.35423 149.451H0.983432C0.437082 149.451 0 149.012 0 148.463V109.884C0 109.335 0.437082 108.896 0.983432 108.896H6.88401C7.43036 108.896 7.86744 109.335 7.86744 109.884V118.335C7.86744 119.542 7.75817 121.463 7.53963 124.097H7.86744C9.6704 121.243 12.4568 119.762 16.0627 119.762ZM13.5495 126.183C11.6373 126.183 10.1621 126.786 9.23332 127.994C8.35916 129.201 7.86744 131.231 7.86744 133.975V134.853C7.86744 137.982 8.30452 140.232 9.23332 141.549C10.1621 142.866 11.6373 143.579 13.6588 143.579C15.2432 143.579 16.609 142.811 17.5378 141.274C18.4666 139.793 18.9584 137.542 18.9584 134.744C18.9584 131.89 18.4666 129.75 17.5378 128.323C16.5544 126.896 15.1885 126.183 13.5495 126.183ZM40.1021 149.506H34.2015C33.6552 149.506 33.2181 149.067 33.2181 148.518V121.353C33.2181 120.804 33.6552 120.365 34.2015 120.365H40.1021C40.6485 120.365 41.0855 120.804 41.0855 121.353V148.463C41.1402 148.957 40.6485 149.506 40.1021 149.506ZM61.6829 143.634C62.8303 143.634 64.1962 143.415 65.8352 142.976C66.2723 142.866 66.6547 143.195 66.6547 143.634V148.189C66.6547 148.463 66.4908 148.683 66.2723 148.793C64.4147 149.561 62.0654 149.945 59.4429 149.945C56.2741 149.945 53.9794 149.177 52.5589 147.53C51.1384 145.939 50.3735 143.524 50.3735 140.341V126.347H47.2593C46.8769 126.347 46.6037 126.073 46.6037 125.689V123.109C46.6037 123.054 46.6583 123 46.6583 122.945L50.9745 120.365L53.1052 114.658C53.2145 114.384 53.433 114.219 53.7062 114.219H57.6399C58.0224 114.219 58.2956 114.493 58.2956 114.878V120.42H66.1084C66.2723 120.42 66.4362 120.585 66.4362 120.75V125.689C66.4362 126.073 66.163 126.347 65.7806 126.347H58.3502V140.286C58.3502 141.384 58.678 142.262 59.279 142.756C59.8253 143.36 60.6995 143.634 61.6829 143.634ZM98.4523 149.506C97.6874 149.506 97.0864 149.012 96.7586 148.299L90.9673 130.573C90.5849 129.311 90.0931 127.39 89.4375 124.92H89.2736L88.7273 126.896L87.5799 130.628L81.6247 148.354C81.4062 149.067 80.7506 149.506 79.9857 149.506C79.2208 149.506 78.5652 149.012 78.3466 148.244L71.0802 122.725C70.8616 121.957 71.4626 121.134 72.3368 121.134H72.5007C73.047 121.134 73.5387 121.518 73.7026 122.067L77.9642 137.597C79.0022 141.658 79.7125 144.622 80.0403 146.598H80.2042C81.1876 142.536 81.9525 139.847 82.4442 138.475L87.9624 122.231C88.1809 121.573 88.7819 121.134 89.5468 121.134C90.257 121.134 90.858 121.573 91.0766 122.231L96.2123 138.366C97.4689 142.482 98.2338 145.116 98.5069 146.488H98.6709C98.8348 145.39 99.4904 142.317 100.747 137.378L104.845 122.067C105.009 121.518 105.5 121.134 106.047 121.134C106.866 121.134 107.467 121.902 107.249 122.725L100.365 148.244C100.146 149.012 99.4904 149.506 98.6709 149.506H98.4523ZM130.906 149.506C130.414 149.506 129.977 149.122 129.922 148.628L129.43 145.006H129.157C127.737 146.817 126.316 148.134 124.786 148.902C123.311 149.671 121.508 150 119.487 150C116.7 150 114.57 149.287 113.04 147.86C111.674 146.598 110.909 144.896 110.8 142.756C110.581 139.902 111.783 137.158 114.078 135.567C116.427 134.03 119.705 133.097 124.131 133.097L129.485 132.933V131.067C129.485 128.323 128.939 126.347 127.791 124.975C126.644 123.603 124.95 122.945 122.546 122.945C120.252 122.945 117.957 123.494 115.553 124.646C114.952 124.92 114.242 124.646 113.969 124.042C113.695 123.439 113.969 122.725 114.57 122.506C117.301 121.408 119.979 120.804 122.71 120.804C125.824 120.804 128.119 121.628 129.704 123.274C131.233 124.865 131.998 127.445 131.998 130.792V148.628C131.944 148.957 131.452 149.506 130.906 149.506ZM119.596 147.64C122.656 147.64 125.005 146.762 126.699 145.061C128.447 143.36 129.321 140.89 129.321 137.872V135.128L124.404 135.347C120.416 135.512 117.629 136.171 115.881 137.213C114.187 138.256 113.313 139.957 113.313 142.152C113.313 143.908 113.859 145.335 114.897 146.323C116.099 147.146 117.629 147.64 119.596 147.64ZM151.94 120.585C152.76 120.585 153.579 120.64 154.508 120.75C155.218 120.859 155.655 121.518 155.546 122.176C155.437 122.835 154.781 123.219 154.125 123.109C153.306 123 152.486 122.89 151.667 122.89C149.263 122.89 147.296 123.933 145.766 125.963C144.236 127.994 143.472 130.628 143.472 133.701V148.079C143.472 148.793 142.925 149.341 142.215 149.341C141.505 149.341 140.958 148.793 140.958 148.079V122.286C140.958 121.683 141.45 121.189 142.051 121.189C142.652 121.189 143.144 121.628 143.144 122.231L143.362 126.292H143.526C144.674 124.207 145.93 122.725 147.241 121.902C148.498 121.024 150.082 120.585 151.94 120.585ZM171.171 120.585C173.193 120.585 174.996 120.969 176.471 121.683C178.001 122.396 179.312 123.713 180.459 125.524H180.623C180.514 123.274 180.459 121.189 180.459 119.103V110.158C180.459 109.445 181.006 108.896 181.716 108.896C182.426 108.896 182.973 109.445 182.973 110.158V148.518C182.973 149.012 182.59 149.396 182.099 149.396C181.661 149.396 181.279 149.067 181.224 148.573L180.678 145.006H180.459C178.329 148.244 175.215 149.835 171.226 149.835C167.292 149.835 164.397 148.628 162.266 146.158C160.245 143.689 159.152 140.177 159.152 135.512C159.152 130.628 160.135 126.896 162.211 124.262C164.287 121.902 167.238 120.585 171.171 120.585ZM171.171 122.945C168.057 122.945 165.763 124.042 164.178 126.237C162.648 128.378 161.884 131.506 161.884 135.677C161.884 143.689 164.998 147.695 171.226 147.695C174.45 147.695 176.744 146.762 178.219 144.896C179.749 143.03 180.459 139.957 180.459 135.677V135.238C180.459 130.847 179.749 127.719 178.219 125.853C176.799 123.878 174.45 122.945 171.171 122.945ZM203.898 150C199.8 150 196.631 148.738 194.282 146.158C191.987 143.634 190.84 140.067 190.84 135.512C190.84 130.957 191.933 127.335 194.173 124.646C196.413 121.902 199.363 120.53 203.133 120.53C206.411 120.53 209.088 121.683 210.946 123.987C212.913 126.292 213.841 129.475 213.841 133.481V135.567H193.517C193.572 139.463 194.446 142.427 196.249 144.512C198.052 146.598 200.565 147.53 203.898 147.53C205.482 147.53 206.957 147.421 208.159 147.201C209.034 147.037 210.072 146.762 211.328 146.323C212.038 146.049 212.803 146.598 212.803 147.366C212.803 147.805 212.53 148.244 212.093 148.409C210.782 148.957 209.525 149.287 208.378 149.506C207.012 149.89 205.537 150 203.898 150ZM203.133 122.89C200.401 122.89 198.216 123.768 196.577 125.579C194.938 127.335 194.009 129.969 193.681 133.317H211.164C211.164 130.079 210.454 127.445 209.034 125.634C207.613 123.823 205.646 122.89 203.133 122.89ZM242.689 149.506C241.978 149.506 241.432 148.957 241.432 148.244V131.067C241.432 128.213 240.831 126.128 239.684 124.865C238.427 123.603 236.624 122.89 234.111 122.89C230.724 122.89 228.265 123.713 226.735 125.469C225.206 127.17 224.331 129.969 224.331 133.756V148.134C224.331 148.848 223.785 149.396 223.075 149.396C222.365 149.396 221.818 148.848 221.818 148.134V122.286C221.818 121.628 222.31 121.134 222.966 121.134C223.567 121.134 224.004 121.573 224.113 122.122L224.441 124.975H224.605C226.462 122.012 229.686 120.53 234.384 120.53C240.777 120.53 244 123.987 244 130.902V148.134C243.945 148.902 243.344 149.506 242.689 149.506ZM37.2064 108.457C34.6386 108.457 32.5625 110.432 32.5625 112.902V113.341C32.5625 115.756 34.6932 117.786 37.2064 117.786C39.7197 117.786 41.8504 115.756 41.8504 113.341V112.957C41.8504 110.432 39.7197 108.457 37.2064 108.457Z" fill="white"/>
<path d="M150.45 52.453V12.1045H122.232V83.7861C127.229 81.1382 131.701 78.2592 135.648 75.149C145.516 67.4155 150.45 59.8502 150.45 52.453ZM162.543 4.03485V52.453C162.543 56.0675 161.839 59.6506 160.433 63.2021C159.026 66.7536 157.283 69.9058 155.205 72.6587C153.126 75.4117 150.649 78.0911 147.773 80.6969C144.896 83.3027 142.241 85.4673 139.805 87.1905C137.37 88.9137 134.829 90.5423 132.184 92.0764C129.539 93.6105 127.66 94.6507 126.547 95.1971C125.434 95.7435 124.542 96.1638 123.87 96.458C123.366 96.7102 122.82 96.8363 122.232 96.8363C121.645 96.8363 121.099 96.7102 120.595 96.458C119.923 96.1638 119.031 95.7435 117.918 95.1971C116.805 94.6507 114.926 93.6105 112.281 92.0764C109.635 90.5423 107.095 88.9137 104.66 87.1905C102.224 85.4673 99.5685 83.3027 96.6922 80.6969C93.8159 78.0911 91.3385 75.4117 89.26 72.6587C87.1815 69.9058 85.4389 66.7536 84.0323 63.2021C82.6256 59.6506 81.9223 56.0675 81.9223 52.453V4.03485C81.9223 2.94207 82.3212 1.99641 83.119 1.19784C83.9168 0.399281 84.8616 0 85.9533 0H158.512C159.603 0 160.548 0.399281 161.346 1.19784C162.144 1.99641 162.543 2.94207 162.543 4.03485Z" fill="white"/>
</svg>
