<svg width="245" height="150" viewBox="0 0 245 150" fill="none" xmlns="http://www.w3.org/2000/svg">
<path fill-rule="evenodd" clip-rule="evenodd" d="M16.1285 119.762C19.5846 119.762 22.2727 121.079 24.2476 123.823C26.2226 126.512 27.21 130.189 27.21 134.853C27.21 139.683 26.2226 143.415 24.1928 146.049C22.163 148.738 19.4201 150 15.9639 150C12.5078 150 9.87461 148.793 7.89969 146.268H7.3511L6.30878 148.848C6.1442 149.232 5.76019 149.451 5.37618 149.451H0.987462C0.438873 149.451 0 149.012 0 148.463V109.884C0 109.335 0.438873 108.896 0.987462 108.896H6.91222C7.46081 108.896 7.89969 109.335 7.89969 109.884V118.335C7.89969 119.542 7.78997 121.463 7.57053 124.097H7.89969C9.71003 121.243 12.5078 119.762 16.1285 119.762ZM13.605 126.183C11.685 126.183 10.2038 126.786 9.27116 127.994C8.39342 129.201 7.89969 131.231 7.89969 133.975V134.853C7.89969 137.982 8.33856 140.232 9.27116 141.549C10.2038 142.866 11.685 143.579 13.7147 143.579C15.3056 143.579 16.6771 142.811 17.6097 141.274C18.5423 139.793 19.0361 137.542 19.0361 134.744C19.0361 131.89 18.5423 129.75 17.6097 128.323C16.6223 126.896 15.2508 126.183 13.605 126.183ZM40.2665 149.506H34.3417C33.7931 149.506 33.3542 149.067 33.3542 148.518V121.353C33.3542 120.804 33.7931 120.365 34.3417 120.365H40.2665C40.815 120.365 41.2539 120.804 41.2539 121.353V148.463C41.3088 148.957 40.815 149.506 40.2665 149.506ZM61.9357 143.634C63.0878 143.634 64.4592 143.415 66.105 142.976C66.5439 142.866 66.9279 143.195 66.9279 143.634V148.189C66.9279 148.463 66.7633 148.683 66.5439 148.793C64.6787 149.561 62.3197 149.945 59.6865 149.945C56.5047 149.945 54.2006 149.177 52.7743 147.53C51.348 145.939 50.5799 143.524 50.5799 140.341V126.347H47.453C47.069 126.347 46.7947 126.073 46.7947 125.689V123.109C46.7947 123.054 46.8495 123 46.8495 122.945L51.1834 120.365L53.3229 114.658C53.4326 114.384 53.652 114.219 53.9263 114.219H57.8762C58.2602 114.219 58.5345 114.493 58.5345 114.878V120.42H66.3793C66.5439 120.42 66.7085 120.585 66.7085 120.75V125.689C66.7085 126.073 66.4342 126.347 66.0502 126.347H58.5893V140.286C58.5893 141.384 58.9185 142.262 59.5219 142.756C60.0705 143.36 60.9483 143.634 61.9357 143.634ZM98.8558 149.506C98.0878 149.506 97.4843 149.012 97.1552 148.299L91.3401 130.573C90.9561 129.311 90.4624 127.39 89.8041 124.92H89.6395L89.0909 126.896L87.9389 130.628L81.9592 148.354C81.7398 149.067 81.0815 149.506 80.3135 149.506C79.5455 149.506 78.8871 149.012 78.6677 148.244L71.3715 122.725C71.152 121.957 71.7555 121.134 72.6332 121.134H72.7978C73.3464 121.134 73.8401 121.518 74.0047 122.067L78.2837 137.597C79.326 141.658 80.0392 144.622 80.3683 146.598H80.5329C81.5204 142.536 82.2884 139.847 82.7821 138.475L88.3229 122.231C88.5423 121.573 89.1458 121.134 89.9138 121.134C90.627 121.134 91.2304 121.573 91.4498 122.231L96.6066 138.366C97.8683 142.482 98.6364 145.116 98.9106 146.488H99.0752C99.2398 145.39 99.8981 142.317 101.16 137.378L105.274 122.067C105.439 121.518 105.933 121.134 106.481 121.134C107.304 121.134 107.908 121.902 107.688 122.725L100.776 148.244C100.556 149.012 99.8981 149.506 99.0752 149.506H98.8558ZM131.442 149.506C130.948 149.506 130.509 149.122 130.455 148.628L129.961 145.006H129.687C128.26 146.817 126.834 148.134 125.298 148.902C123.817 149.671 122.006 150 119.976 150C117.179 150 115.039 149.287 113.503 147.86C112.132 146.598 111.364 144.896 111.254 142.756C111.034 139.902 112.241 137.158 114.545 135.567C116.904 134.03 120.196 133.097 124.639 133.097L130.016 132.933V131.067C130.016 128.323 129.467 126.347 128.315 124.975C127.163 123.603 125.462 122.945 123.049 122.945C120.745 122.945 118.44 123.494 116.027 124.646C115.423 124.92 114.71 124.646 114.436 124.042C114.161 123.439 114.436 122.725 115.039 122.506C117.782 121.408 120.47 120.804 123.213 120.804C126.34 120.804 128.644 121.628 130.235 123.274C131.771 124.865 132.539 127.445 132.539 130.792V148.628C132.484 148.957 131.991 149.506 131.442 149.506ZM120.086 147.64C123.158 147.64 125.517 146.762 127.218 145.061C128.973 143.36 129.851 140.89 129.851 137.872V135.128L124.914 135.347C120.909 135.512 118.111 136.171 116.356 137.213C114.655 138.256 113.777 139.957 113.777 142.152C113.777 143.908 114.326 145.335 115.368 146.323C116.575 147.146 118.111 147.64 120.086 147.64ZM152.563 120.585C153.386 120.585 154.208 120.64 155.141 120.75C155.854 120.859 156.293 121.518 156.183 122.176C156.074 122.835 155.415 123.219 154.757 123.109C153.934 123 153.111 122.89 152.288 122.89C149.875 122.89 147.9 123.933 146.364 125.963C144.828 127.994 144.06 130.628 144.06 133.701V148.079C144.06 148.793 143.511 149.341 142.798 149.341C142.085 149.341 141.536 148.793 141.536 148.079V122.286C141.536 121.683 142.03 121.189 142.633 121.189C143.237 121.189 143.73 121.628 143.73 122.231L143.95 126.292H144.114C145.266 124.207 146.528 122.725 147.845 121.902C149.107 121.024 150.697 120.585 152.563 120.585ZM171.873 120.585C173.903 120.585 175.713 120.969 177.194 121.683C178.73 122.396 180.047 123.713 181.199 125.524H181.364C181.254 123.274 181.199 121.189 181.199 119.103V110.158C181.199 109.445 181.748 108.896 182.461 108.896C183.174 108.896 183.723 109.445 183.723 110.158V148.518C183.723 149.012 183.339 149.396 182.845 149.396C182.406 149.396 182.022 149.067 181.967 148.573L181.418 145.006H181.199C179.06 148.244 175.933 149.835 171.928 149.835C167.978 149.835 165.071 148.628 162.931 146.158C160.901 143.689 159.804 140.177 159.804 135.512C159.804 130.628 160.792 126.896 162.876 124.262C164.961 121.902 167.923 120.585 171.873 120.585ZM171.873 122.945C168.746 122.945 166.442 124.042 164.851 126.237C163.315 128.378 162.547 131.506 162.547 135.677C162.547 143.689 165.674 147.695 171.928 147.695C175.165 147.695 177.469 146.762 178.95 144.896C180.486 143.03 181.199 139.957 181.199 135.677V135.238C181.199 130.847 180.486 127.719 178.95 125.853C177.523 123.878 175.165 122.945 171.873 122.945ZM204.734 150C200.619 150 197.437 148.738 195.078 146.158C192.774 143.634 191.622 140.067 191.622 135.512C191.622 130.957 192.719 127.335 194.969 124.646C197.218 121.902 200.18 120.53 203.965 120.53C207.257 120.53 209.945 121.683 211.81 123.987C213.785 126.292 214.718 129.475 214.718 133.481V135.567H194.31C194.365 139.463 195.243 142.427 197.053 144.512C198.864 146.598 201.387 147.53 204.734 147.53C206.324 147.53 207.806 147.421 209.013 147.201C209.89 147.037 210.933 146.762 212.194 146.323C212.908 146.049 213.676 146.598 213.676 147.366C213.676 147.805 213.401 148.244 212.962 148.409C211.646 148.957 210.384 149.287 209.232 149.506C207.86 149.89 206.379 150 204.734 150ZM203.965 122.89C201.223 122.89 199.028 123.768 197.382 125.579C195.737 127.335 194.804 129.969 194.475 133.317H212.03C212.03 130.079 211.317 127.445 209.89 125.634C208.464 123.823 206.489 122.89 203.965 122.89ZM243.683 149.506C242.97 149.506 242.422 148.957 242.422 148.244V131.067C242.422 128.213 241.818 126.128 240.666 124.865C239.404 123.603 237.594 122.89 235.071 122.89C231.669 122.89 229.201 123.713 227.665 125.469C226.129 127.17 225.251 129.969 225.251 133.756V148.134C225.251 148.848 224.702 149.396 223.989 149.396C223.276 149.396 222.727 148.848 222.727 148.134V122.286C222.727 121.628 223.221 121.134 223.879 121.134C224.483 121.134 224.922 121.573 225.031 122.122L225.36 124.975H225.525C227.39 122.012 230.627 120.53 235.345 120.53C241.763 120.53 245 123.987 245 130.902V148.134C244.945 148.902 244.342 149.506 243.683 149.506ZM37.3589 108.457C34.7806 108.457 32.6959 110.432 32.6959 112.902V113.341C32.6959 115.756 34.8354 117.786 37.3589 117.786C39.8824 117.786 42.0219 115.756 42.0219 113.341V112.957C42.0219 110.432 39.8824 108.457 37.3589 108.457Z" fill="black"/>
<path d="M151.066 52.453V12.1045H122.733V83.7861C127.751 81.1382 132.241 78.2592 136.204 75.149C146.112 67.4155 151.066 59.8502 151.066 52.453ZM163.209 4.03485V52.453C163.209 56.0675 162.502 59.6506 161.09 63.2021C159.678 66.7536 157.928 69.9058 155.841 72.6587C153.754 75.4117 151.266 78.0911 148.378 80.6969C145.49 83.3027 142.823 85.4673 140.378 87.1905C137.933 88.9137 135.382 90.5423 132.726 92.0764C130.07 93.6105 128.183 94.6507 127.065 95.1971C125.948 95.7435 125.052 96.1638 124.378 96.458C123.872 96.7102 123.324 96.8363 122.733 96.8363C122.143 96.8363 121.595 96.7102 121.089 96.458C120.414 96.1638 119.519 95.7435 118.401 95.1971C117.284 94.6507 115.397 93.6105 112.741 92.0764C110.085 90.5423 107.534 88.9137 105.089 87.1905C102.643 85.4673 99.9765 83.3027 97.0885 80.6969C94.2004 78.0911 91.7128 75.4117 89.6258 72.6587C87.5388 69.9058 85.7891 66.7536 84.3767 63.2021C82.9643 59.6506 82.258 56.0675 82.258 52.453V4.03485C82.258 2.94207 82.6586 1.99641 83.4597 1.19784C84.2607 0.399281 85.2094 0 86.3056 0H159.161C160.257 0 161.206 0.399281 162.007 1.19784C162.808 1.99641 163.209 2.94207 163.209 4.03485Z" fill="black"/>
</svg>
