<?xml version="1.0" encoding="utf-8"?>
<!-- Generator: Adobe Illustrator 24.0.3, SVG Export Plug-In . SVG Version: 6.00 Build 0)  -->
<svg version="1.1" id="Black_CMYK_Horizontal" xmlns="http://www.w3.org/2000/svg" xmlns:xlink="http://www.w3.org/1999/xlink"
	 x="0px" y="0px" viewBox="0 0 550.8 90.4" style="enable-background:new 0 0 550.8 90.4;" xml:space="preserve">
<style type="text/css">
	.st0{fill:#175DDC;}
</style>
<path id="Identity" class="st0" d="M133,24.6c6.2,0,11.1,2.4,14.6,7.3c3.5,4.8,5.3,11.5,5.3,19.9c0,8.7-1.8,15.4-5.4,20.2
	c-3.6,4.8-8.6,7.1-14.8,7.1c-6.2,0-11-2.2-14.5-6.7h-1l-1.9,4.7c-0.3,0.7-1,1.1-1.7,1.1h-7.9c-1,0-1.8-0.8-1.8-1.8V6.8
	c0-1,0.8-1.8,1.8-1.8h10.7c1,0,1.8,0.8,1.8,1.8V22c0,2.2-0.2,5.6-0.6,10.4h0.6C121.4,27.2,126.4,24.6,133,24.6z M128.4,36.1
	c-3.5,0-6.1,1.1-7.8,3.3c-1.6,2.2-2.5,5.8-2.5,10.8v1.6c0,5.6,0.8,9.7,2.5,12.1c1.7,2.4,4.3,3.7,8,3.7c2.9,0,5.3-1.4,7-4.1
	c1.7-2.7,2.6-6.7,2.6-11.8c0-5.2-0.9-9.1-2.6-11.6C133.8,37.4,131.4,36.1,128.4,36.1z M176.5,78.2h-10.7c-1,0-1.8-0.8-1.8-1.8V27.4
	c0-1,0.8-1.8,1.8-1.8h10.7c1,0,1.8,0.8,1.8,1.8v48.9C178.3,77.3,177.5,78.2,176.5,78.2z M215.5,67.7c2.1,0,4.6-0.4,7.5-1.2
	c0.8-0.2,1.5,0.4,1.5,1.2v8.2c0,0.5-0.3,0.9-0.7,1.1c-3.4,1.4-7.6,2.1-12.4,2.1c-5.7,0-9.9-1.4-12.5-4.4c-2.6-2.9-3.9-7.2-3.9-13
	V36.4h-5.6c-0.7,0-1.2-0.5-1.2-1.2v-4.7c0-0.1,0.1-0.2,0.1-0.3l7.8-4.7l3.8-10.3c0.2-0.5,0.6-0.8,1.1-0.8h7.1c0.7,0,1.2,0.5,1.2,1.2
	v10h14.1c0.3,0,0.6,0.3,0.6,0.6v8.9c0,0.7-0.5,1.2-1.2,1.2h-13.5v25.3c0,2,0.6,3.5,1.7,4.5C212.2,67.2,213.7,67.7,215.5,67.7z
	 M282.1,78.2c-1.4,0-2.5-0.9-3-2.2l-10.5-32c-0.7-2.3-1.6-5.7-2.8-10.2h-0.3l-1,3.5l-2.1,6.8l-10.7,32c-0.4,1.3-1.6,2.1-3,2.1l0,0
	c-1.4,0-2.6-0.9-3-2.3l-13.2-46c-0.4-1.4,0.7-2.9,2.2-2.9h0.3c1,0,1.9,0.7,2.2,1.7l7.7,28c1.9,7.3,3.2,12.7,3.8,16.2h0.3
	c1.8-7.3,3.2-12.2,4-14.6L263,29c0.4-1.2,1.5-2,2.8-2l0,0c1.3,0,2.4,0.8,2.8,2l9.4,29.1c2.3,7.4,3.6,12.2,4.1,14.6h0.3
	c0.3-2,1.5-7.5,3.8-16.4l7.4-27.7c0.3-1,1.2-1.7,2.2-1.7l0,0c1.5,0,2.6,1.4,2.2,2.9l-12.5,46c-0.4,1.4-1.6,2.3-3,2.3H282.1z
	 M340.8,78.2c-0.9,0-1.7-0.7-1.8-1.6l-0.9-6.5h-0.4c-2.6,3.3-5.2,5.6-7.9,7c-2.7,1.4-5.9,2-9.6,2c-5,0-8.9-1.3-11.7-3.9
	c-2.5-2.3-3.9-5.3-4.1-9.2c-0.4-5.1,1.8-10.1,6-13c4.2-2.8,10.2-4.4,18.2-4.5l9.7-0.3v-3.4c0-4.9-1-8.5-3-11c-2-2.5-5.2-3.7-9.5-3.7
	c-4.1,0-8.3,1-12.7,3c-1.1,0.5-2.4,0-2.9-1.1v0c-0.5-1.1,0-2.4,1.1-2.8c4.9-2,9.8-3.1,14.7-3.1c5.6,0,9.8,1.5,12.6,4.4
	c2.8,2.9,4.2,7.5,4.2,13.6v32.2C342.7,77.3,341.8,78.2,340.8,78.2L340.8,78.2z M320.4,74.9c5.5,0,9.8-1.6,12.9-4.7
	c3.2-3.1,4.7-7.5,4.7-13v-5l-8.9,0.4c-7.2,0.3-12.3,1.5-15.4,3.4c-3.1,1.9-4.6,4.9-4.6,8.9c0,3.2,1,5.7,2.9,7.5
	C314.1,74,316.8,74.9,320.4,74.9z M378.9,26.1c1.5,0,3,0.1,4.6,0.3c1.3,0.2,2.1,1.4,1.9,2.6v0c-0.2,1.2-1.4,1.9-2.6,1.7
	c-1.5-0.2-3-0.4-4.5-0.4c-4.4,0-7.9,1.9-10.7,5.5c-2.8,3.7-4.2,8.4-4.2,14v25.9c0,1.3-1,2.3-2.3,2.3h0c-1.3,0-2.3-1-2.3-2.3V29.1
	c0-1.1,0.9-2,2-2l0,0c1.1,0,2,0.8,2,1.9l0.4,7.3h0.3c2.1-3.8,4.3-6.4,6.7-7.9C372.7,26.8,375.6,26.1,378.9,26.1z M413.7,26.1
	c3.7,0,6.9,0.7,9.6,2c2.7,1.3,5.1,3.7,7.2,6.9h0.3c-0.2-4-0.3-7.8-0.3-11.6V7.3c0-1.3,1-2.3,2.3-2.3l0,0c1.3,0,2.3,1,2.3,2.3v69.2
	c0,0.9-0.7,1.6-1.6,1.6l0,0c-0.8,0-1.5-0.6-1.6-1.4l-1-6.4h-0.4c-3.9,5.8-9.5,8.7-16.7,8.7c-7.1,0-12.4-2.2-16.2-6.6
	c-3.7-4.4-5.6-10.8-5.6-19.2c0-8.8,1.8-15.6,5.5-20.3C401.2,28.4,406.6,26.1,413.7,26.1z M413.7,30.3c-5.6,0-9.8,2-12.6,5.9
	c-2.8,3.9-4.2,9.6-4.2,17.1c0,14.5,5.6,21.7,16.9,21.7c5.8,0,10-1.7,12.7-5c2.7-3.4,4-8.9,4-16.6v-0.8c0-7.9-1.3-13.6-4-17
	C423.9,32,419.6,30.3,413.7,30.3z M472.9,79.1c-7.4,0-13.2-2.3-17.4-6.9c-4.2-4.6-6.2-11-6.2-19.2c0-8.2,2-14.7,6-19.6
	c4-4.9,9.4-7.4,16.2-7.4c6,0,10.8,2.1,14.2,6.3c3.5,4.2,5.2,9.9,5.2,17.1v3.8h-36.8c0.1,7,1.7,12.4,4.9,16.1
	c3.2,3.7,7.8,5.5,13.8,5.5c2.9,0,5.5-0.2,7.7-0.6c1.6-0.3,3.5-0.8,5.7-1.6c1.3-0.5,2.7,0.5,2.7,1.9l0,0c0,0.8-0.5,1.6-1.3,1.9
	c-2.4,1-4.6,1.6-6.7,2C478.6,78.9,475.9,79.1,472.9,79.1z M471.5,30.2c-4.9,0-8.9,1.6-11.9,4.9c-3,3.2-4.7,7.9-5.2,14h31.6
	c0-5.9-1.3-10.6-3.9-13.9C479.7,31.9,476.1,30.2,471.5,30.2z M543.1,78.2c-1.3,0-2.3-1-2.3-2.3V45c0-5.1-1.1-8.9-3.2-11.2
	c-2.2-2.3-5.5-3.5-10.1-3.5c-6.1,0-10.6,1.5-13.4,4.6c-2.8,3.1-4.3,8.1-4.3,15v25.9c0,1.3-1,2.3-2.3,2.3h0c-1.3,0-2.3-1-2.3-2.3
	V29.1c0-1.2,0.9-2.1,2.1-2.1l0,0c1.1,0,1.9,0.8,2.1,1.8L510,34h0.3c3.3-5.3,9.2-8,17.7-8c11.6,0,17.4,6.2,17.4,18.7v31.1
	C545.4,77.1,544.3,78.2,543.1,78.2L543.1,78.2z M171.2,4.2L171.2,4.2c-4.6,0-8.4,3.6-8.4,8V13c0,4.4,3.8,8,8.4,8h0
	c4.6,0,8.4-3.6,8.4-8v-0.7C179.6,7.8,175.8,4.2,171.2,4.2z M72,6c-0.7-0.7-1.5-1-2.4-1H8.8C7.8,5,7.1,5.3,6.4,6
	c-0.7,0.7-1,1.5-1,2.4V49c0,3,0.6,6,1.8,9c1.2,3,2.6,5.6,4.4,7.9c1.7,2.3,3.8,4.6,6.2,6.7c2.4,2.2,4.6,4,6.7,5.4
	c2,1.4,4.2,2.8,6.4,4.1c2.2,1.3,3.8,2.2,4.7,2.6c0.9,0.5,1.7,0.8,2.2,1.1c0.4,0.2,0.9,0.3,1.4,0.3c0.5,0,1-0.1,1.4-0.3
	c0.6-0.2,1.3-0.6,2.2-1.1c0.9-0.5,2.5-1.3,4.7-2.6c2.2-1.3,4.4-2.7,6.4-4.1c2-1.4,4.3-3.3,6.7-5.4c2.4-2.2,4.5-4.4,6.2-6.7
	c1.7-2.3,3.2-5,4.4-7.9c1.2-3,1.8-6,1.8-9V8.4C73,7.5,72.7,6.7,72,6z M64.2,49.3c0,14.7-25,27.4-25,27.4v-63h25
	C64.2,13.7,64.2,34.7,64.2,49.3z"/>
</svg>
