<?xml version="1.0" encoding="UTF-8" standalone="no"?>
<!-- Created with Inkscape (http://www.inkscape.org/) -->

<svg
   xmlns:dc="http://purl.org/dc/elements/1.1/"
   xmlns:cc="http://creativecommons.org/ns#"
   xmlns:rdf="http://www.w3.org/1999/02/22-rdf-syntax-ns#"
   xmlns:svg="http://www.w3.org/2000/svg"
   xmlns="http://www.w3.org/2000/svg"
   xmlns:sodipodi="http://sodipodi.sourceforge.net/DTD/sodipodi-0.dtd"
   xmlns:inkscape="http://www.inkscape.org/namespaces/inkscape"
   width="1792"
   height="1792"
   viewBox="0 0 474.13332 474.13332"
   version="1.1"
   id="svg2568"
   inkscape:version="0.92.3 (2405546, 2018-03-11)"
   sodipodi:docname="icon_round.svg">
  <defs
     id="defs2562" />
  <sodipodi:namedview
     id="base"
     pagecolor="#ffffff"
     bordercolor="#666666"
     borderopacity="1.0"
     inkscape:pageopacity="0.0"
     inkscape:pageshadow="2"
     inkscape:zoom="0.24748737"
     inkscape:cx="1035.8183"
     inkscape:cy="1169.5872"
     inkscape:document-units="px"
     inkscape:current-layer="layer1"
     showgrid="false"
     fit-margin-top="0"
     fit-margin-left="0"
     fit-margin-right="0"
     fit-margin-bottom="0"
     units="px"
     inkscape:window-width="1920"
     inkscape:window-height="1011"
     inkscape:window-x="0"
     inkscape:window-y="0"
     inkscape:window-maximized="1" />
  <metadata
     id="metadata2565">
    <rdf:RDF>
      <cc:Work
         rdf:about="">
        <dc:format>image/svg+xml</dc:format>
        <dc:type
           rdf:resource="http://purl.org/dc/dcmitype/StillImage" />
        <dc:title></dc:title>
      </cc:Work>
    </rdf:RDF>
  </metadata>
  <g
     inkscape:label="Layer 1"
     inkscape:groupmode="layer"
     id="layer1"
     transform="translate(299.30669,-17.851948)">
    <g
       id="g3123"
       transform="matrix(1.3125003,0,0,1.3125003,93.533429,-153.74554)"
       style="stroke-width:0.7619046">
      <circle
         r="180.62218"
         cy="311.3631"
         cx="-118.68452"
         id="path2524"
         style="opacity:1;fill:#3c8dbc;fill-opacity:0.99545456;stroke:none;stroke-width:0.30238089;stroke-linejoin:miter;stroke-miterlimit:4;stroke-dasharray:none;stroke-opacity:1;paint-order:markers fill stroke" />
      <path
         inkscape:connector-curvature="0"
         d="M -44.733401,341.25717 V 235.61275 h -73.951119 v 187.68394 q 19.643249,-10.39937 35.159789,-22.61452 38.79133,-30.37277 38.79133,-59.425 z m 31.6933,-126.7733 v 126.7733 q 0,14.19596 -5.52982,28.14434 -5.52984,13.94838 -13.70076,24.76042 -8.17094,10.81205 -19.4782,21.04637 -11.30726,10.23429 -20.88126,17.00215 -9.57402,6.76786 -19.97342,12.79284 -10.399339,6.02504 -14.773699,8.17094 -4.37435,2.14593 -7.01545,3.30142 -1.98086,0.99039 -4.29181,0.99039 -2.31097,0 -4.2918,-0.99039 -2.6411,-1.15549 -7.01543,-3.30142 -4.37436,-2.1459 -14.77375,-8.17094 -10.39934,-6.02498 -19.97337,-12.79284 -9.57403,-6.76786 -20.88131,-17.00215 -11.30724,-10.23432 -19.47821,-21.04637 -8.17089,-10.81204 -13.70073,-24.76042 -5.52984,-13.94838 -5.52984,-28.14434 v -126.7733 q 0,-4.29181 3.13634,-7.42813 3.13629,-3.13632 7.42812,-3.13632 h 190.159959 q 4.29183,0 7.42812,3.13632 3.13632,3.13632 3.13632,7.42813 z"
         id="path2528"
         style="fill:#ffffff;fill-opacity:1;stroke-width:0.20158724" />
    </g>
  </g>
</svg>
